<svg width="157" height="35" viewBox="0 0 157 35" fill="none" xmlns="http://www.w3.org/2000/svg">
<rect width="156.2" height="34.7312" rx="17.3656" fill="#359657"/>
<path d="M24.8564 8.41807V19.3645C24.8564 21.7127 24.2381 23.4786 23.0014 24.6623C21.7648 25.8459 19.9633 26.4368 17.5988 26.4368C15.2344 26.4368 13.4813 25.8459 12.236 24.6623C10.989 23.4786 10.3672 21.7127 10.3672 19.3645V8.41807H13.2429V19.0137C13.2429 20.6811 13.6004 21.9183 14.319 22.7253C15.0357 23.5322 16.129 23.9348 17.5988 23.9348C19.0687 23.9348 20.1879 23.5322 20.9046 22.7253C21.6214 21.9183 21.9807 20.6811 21.9807 19.0137V8.41807H24.8564Z" fill="white"/>
<path d="M42.2766 26.1673H38.8897L34.5078 19.3368L30.1536 26.1673H26.8478L33.0035 17.1579L27.3297 8.41807H30.7167L34.7755 14.8719L38.8897 8.41807H42.0348L36.2816 17.0508L42.2766 26.1673Z" fill="white"/>
<path d="M47.7172 8.39904H53.9799C55.9334 8.39904 57.3842 8.80683 58.3341 9.62241C59.2841 10.438 59.7591 11.5992 59.7591 13.1059C59.7591 14.1271 59.481 15.0014 58.9266 15.7289C58.3704 16.4546 57.5638 16.9263 56.5068 17.1406V17.1682C57.6536 17.3479 58.5638 17.8179 59.2357 18.58C59.9076 19.342 60.2444 20.2699 60.2444 21.3636C60.2444 22.8704 59.7072 24.0436 58.6312 24.8869C57.5552 25.7301 56.0059 26.15 53.9799 26.15H47.7172V8.39904ZM49.061 16.5738H54.0076C56.8919 16.5738 58.3359 15.4179 58.3359 13.1042C58.3359 10.7905 56.8937 9.63451 54.0076 9.63451H49.061V16.5738ZM49.061 24.9111H54.2494C55.7727 24.9111 56.9144 24.6069 57.6761 23.997C58.4378 23.387 58.8195 22.5092 58.8195 21.3619C58.8195 20.2146 58.4378 19.3143 57.6761 18.713C56.9144 18.1117 55.771 17.8128 54.2494 17.8128H49.061V24.9128V24.9111Z" fill="white"/>
<path d="M62.3446 26.1483V12.7016H63.4742L63.6348 15.4991C63.9751 14.5677 64.5226 13.823 65.2739 13.2666C66.0269 12.7119 66.932 12.4338 67.989 12.4338C68.3465 12.4338 68.6695 12.47 68.9562 12.5409C69.2429 12.6135 69.4847 12.7292 69.6816 12.8899L69.3586 14.0736C69.1617 13.9474 68.9459 13.8489 68.7127 13.7781C68.4795 13.7072 68.1306 13.6709 67.6643 13.6709C66.9838 13.6709 66.3378 13.8818 65.7281 14.3034C65.1184 14.725 64.6262 15.3073 64.2497 16.052C63.8732 16.7968 63.6849 17.6521 63.6849 18.6197V26.15H62.3412L62.3446 26.1483Z" fill="white"/>
<path d="M79.4626 17.2996C79.4626 16.135 79.1482 15.2295 78.5213 14.5833C77.8943 13.937 76.9979 13.6157 75.8338 13.6157C74.813 13.6157 73.9339 13.8351 73.1999 14.274C72.4641 14.7129 71.9183 15.4438 71.5608 16.4667L70.4588 15.7669C70.8526 14.7094 71.5107 13.8887 72.4347 13.3064C73.357 12.724 74.5004 12.432 75.8614 12.432C76.8476 12.432 77.7112 12.6065 78.4556 12.9556C79.1983 13.3046 79.7769 13.8213 80.1897 14.5021C80.6025 15.1829 80.808 16.0347 80.808 17.0577V23.781C80.808 24.7314 81.2381 25.2065 82.0982 25.2065C82.4748 25.2065 82.7977 25.1443 83.0655 25.0182L82.9843 26.0947C82.6786 26.2554 82.2848 26.3366 81.8012 26.3366C81.3884 26.3366 81.0032 26.2554 80.6457 26.0947C80.2864 25.934 79.9963 25.6644 79.7717 25.2878C79.5472 24.9111 79.4349 24.3996 79.4349 23.7551V23.0294L79.8115 23.0017C79.6508 23.7724 79.2968 24.4134 78.7493 24.9249C78.2017 25.4364 77.5713 25.813 76.8546 26.055C76.1378 26.2969 75.421 26.4178 74.7042 26.4178C73.8614 26.4178 73.1083 26.283 72.4468 26.0152C71.7836 25.7457 71.2637 25.3569 70.8872 24.8454C70.5107 24.3339 70.3224 23.7033 70.3224 22.9499C70.3224 21.946 70.6592 21.1338 71.3311 20.5152C72.0029 19.8966 72.9477 19.4716 74.1671 19.2383L79.732 18.1359V19.266L74.8389 20.2336C73.7819 20.4496 72.9926 20.7623 72.4727 21.1753C71.9528 21.5883 71.6938 22.1429 71.6938 22.8427C71.6938 23.5961 71.9718 24.1836 72.528 24.6035C73.0824 25.0251 73.8717 25.2359 74.8942 25.2359C75.4141 25.2359 75.9426 25.1651 76.4798 25.0199C77.0169 24.8765 77.5143 24.6484 77.972 24.3339C78.4297 24.0212 78.7924 23.6255 79.0601 23.1503C79.3296 22.6751 79.4626 22.098 79.4626 21.4155V17.2996Z" fill="white"/>
<path d="M89.4543 26.4178C88.0915 26.4178 86.8877 26.1396 85.8393 25.5832C84.7909 25.0286 84.0517 24.2303 83.6216 23.1901L84.7771 22.4108C85.1001 23.3076 85.6769 24.0022 86.5112 24.4946C87.3454 24.9871 88.361 25.2342 89.5631 25.2342C90.7652 25.2342 91.6737 25.0009 92.3455 24.5344C93.0174 24.0678 93.3542 23.4492 93.3542 22.6786C93.3542 22.1585 93.1884 21.7058 92.8568 21.3204C92.5252 20.9351 91.9034 20.6431 90.988 20.4461L87.8428 19.774C86.5699 19.5044 85.6562 19.0707 85.1001 18.4694C84.5439 17.8681 84.2658 17.1389 84.2658 16.2766C84.2658 15.5596 84.4817 14.915 84.9118 14.3396C85.3419 13.766 85.9377 13.3046 86.6994 12.9539C87.4611 12.6048 88.3523 12.4303 89.3748 12.4303C90.7185 12.4303 91.8291 12.6947 92.7082 13.2234C93.5856 13.7522 94.204 14.5453 94.5632 15.6028L93.4337 16.3285C93.1642 15.3781 92.6668 14.6887 91.9414 14.2584C91.216 13.8282 90.3593 13.6122 89.3748 13.6122C88.6218 13.6122 87.9637 13.7245 87.3989 13.9491C86.8341 14.1738 86.3954 14.4779 86.0811 14.8632C85.7667 15.2485 85.6113 15.6926 85.6113 16.1937C85.6113 16.6948 85.7909 17.1838 86.1485 17.6054C86.506 18.027 87.1433 18.3363 88.057 18.5333L91.2833 19.2331C92.5562 19.5027 93.4423 19.9105 93.9449 20.4565C94.4458 21.0042 94.6979 21.6799 94.6979 22.4868C94.6979 23.2937 94.482 23.9711 94.052 24.5707C93.6219 25.172 93.0122 25.6282 92.2246 25.9426C91.4353 26.2554 90.513 26.4126 89.456 26.4126L89.4543 26.4178Z" fill="white"/>
<path d="M99.2566 6.51562H100.735L98.3812 10.7836H97.2793L99.2566 6.51562ZM98.5634 12.7016V26.1483H97.2197V12.7016H98.5634Z" fill="white"/>
<path d="M103.519 6.51562V22.9741C103.519 23.7983 103.662 24.3823 103.949 24.7227C104.235 25.0631 104.683 25.2342 105.292 25.2342C105.669 25.2342 105.969 25.2065 106.192 25.153C106.417 25.0994 106.681 25.0096 106.985 24.8834L106.797 26.0671C106.564 26.1742 106.299 26.2588 106.004 26.3228C105.709 26.385 105.38 26.4161 105.023 26.4161C104.073 26.4161 103.361 26.1431 102.886 25.5953C102.411 25.0493 102.175 24.1923 102.175 23.0276V6.51562H103.519Z" fill="white"/>
<path d="M108.88 10.7836C108.54 10.7836 108.265 10.6799 108.059 10.4743C107.854 10.2687 107.75 9.99568 107.75 9.65355C107.75 9.31142 107.854 9.04014 108.059 8.83279C108.265 8.62544 108.538 8.52349 108.88 8.52349C109.222 8.52349 109.493 8.62716 109.7 8.83279C109.906 9.03841 110.009 9.31315 110.009 9.65355C110.009 9.99395 109.906 10.2687 109.7 10.4743C109.495 10.6799 109.22 10.7836 108.88 10.7836ZM109.552 12.7016V26.1483H108.208V12.7016H109.552Z" fill="white"/>
<path d="M121.15 17.2996C121.15 16.135 120.835 15.2295 120.208 14.5833C119.581 13.937 118.685 13.6157 117.521 13.6157C116.5 13.6157 115.621 13.8351 114.887 14.274C114.151 14.7129 113.605 15.4438 113.248 16.4667L112.146 15.7669C112.54 14.7094 113.198 13.8887 114.122 13.3064C115.044 12.724 116.187 12.432 117.548 12.432C118.535 12.432 119.398 12.6065 120.143 12.9556C120.885 13.3046 121.464 13.8213 121.877 14.5021C122.29 15.1829 122.495 16.0347 122.495 17.0577V23.781C122.495 24.7314 122.925 25.2065 123.785 25.2065C124.162 25.2065 124.485 25.1443 124.752 25.0182L124.671 26.0947C124.366 26.2554 123.972 26.3366 123.488 26.3366C123.075 26.3366 122.69 26.2554 122.333 26.0947C121.973 25.934 121.683 25.6644 121.459 25.2878C121.234 24.9111 121.122 24.3996 121.122 23.7551V23.0294L121.498 23.0017C121.338 23.7724 120.984 24.4134 120.436 24.9249C119.889 25.4364 119.258 25.813 118.542 26.055C117.825 26.2969 117.108 26.4178 116.391 26.4178C115.548 26.4178 114.795 26.283 114.134 26.0152C113.471 25.7457 112.951 25.3569 112.574 24.8454C112.198 24.3339 112.009 23.7033 112.009 22.9499C112.009 21.946 112.346 21.1338 113.018 20.5152C113.69 19.8966 114.635 19.4716 115.854 19.2383L121.419 18.1359V19.266L116.526 20.2336C115.469 20.4496 114.68 20.7623 114.16 21.1753C113.64 21.5883 113.381 22.1429 113.381 22.8427C113.381 23.5961 113.659 24.1836 114.215 24.6035C114.769 25.0251 115.559 25.2359 116.581 25.2359C117.101 25.2359 117.63 25.1651 118.167 25.0199C118.704 24.8765 119.201 24.6484 119.659 24.3339C120.117 24.0212 120.479 23.6255 120.747 23.1503C121.017 22.6751 121.15 22.098 121.15 21.4155V17.2996Z" fill="white"/>
<path d="M134.199 24.5361L131.664 22.1288L140.946 13.0914H134.347V10.3672H145.833V21.7577H142.9V15.0715" fill="white"/>
</svg>
